<?xml version="1.0" encoding="utf-8"?>
<!-- Generator: Adobe Illustrator 19.0.0, SVG Export Plug-In . SVG Version: 6.00 Build 0)  -->
<svg version="1.1" id="Layer_1" xmlns="http://www.w3.org/2000/svg" xmlns:xlink="http://www.w3.org/1999/xlink" x="0px" y="0px"
	 viewBox="-49 211 500 380" style="enable-background:new -49 211 500 380;" xml:space="preserve">
<style type="text/css">
	.st0{fill:#29AAE2;}
</style>
<path class="st0" d="M440,392.4l-8.2-61.3l-8.2-61.3L370,300.6l-53.6,30.7l34.4,17c-0.2,0.3-0.3,0.6-0.5,0.9
	c-6.7,13.4-33.2,52.8-66.1,58.6c-20.7,3.6-43.6-6.3-68-29.6c-37-35.2-75-49.5-113.1-42.4C37.6,347.9,2.5,418.4-1.3,426.4
	c-0.1,0.2-0.2,0.4-0.3,0.6L-38,409.9l9.4,61.1l9.4,61.1l53-31.8l53-31.8l-37.1-17.4c0.1-0.1,0.1-0.2,0.2-0.3
	c7-14.5,32.1-53.6,63.6-59.3c19.1-3.5,40.5,5.8,63.5,27.7c38.2,36.3,77.5,51.3,116.9,44.4c67.8-11.8,105.5-85.9,107.1-89.1
	c0.2-0.4,0.3-0.7,0.5-1.1L440,392.4z"/>
</svg>
