<?xml version="1.0" encoding="utf-8"?>
<!-- Generator: Adobe Illustrator 19.0.0, SVG Export Plug-In . SVG Version: 6.00 Build 0)  -->
<svg version="1.1" id="Layer_1" xmlns="http://www.w3.org/2000/svg" xmlns:xlink="http://www.w3.org/1999/xlink" x="0px" y="0px"
	 viewBox="-424.7 223.1 91.1 91.8" style="enable-background:new -424.7 223.1 91.1 91.8;" xml:space="preserve">
<style type="text/css">
	.st0{fill:#F7931E;}
</style>
<path class="st0" d="M-361.1,254.3l-25.1,25.1l-11.1-11.1c-0.8-0.8-2-0.8-2.8,0c-0.8,0.8-0.8,2,0,2.8l12.5,12.5
	c0.4,0.4,0.9,0.6,1.4,0.6c0.5,0,1-0.2,1.4-0.6l26.5-26.5c0.8-0.8,0.8-2,0-2.8C-359,253.5-360.3,253.5-361.1,254.3z"/>
<path class="st0" d="M-379.2,226.9c-22.8,0-42,19.2-42,42s19.2,42,42,42s42-19.2,42-42S-356.4,226.9-379.2,226.9z M-379.2,306.9
	c-20.6,0-38-17.4-38-38s17.4-38,38-38s38,17.4,38,38S-358.6,306.9-379.2,306.9z"/>
</svg>
