<?xml version="1.0" encoding="utf-8"?>
<!-- Generator: Adobe Illustrator 19.0.0, SVG Export Plug-In . SVG Version: 6.00 Build 0)  -->
<svg version="1.1" id="Layer_1" xmlns="http://www.w3.org/2000/svg" xmlns:xlink="http://www.w3.org/1999/xlink" x="0px" y="0px"
	 viewBox="-253 355.2 91.1 91.8" style="enable-background:new -253 355.2 91.1 91.8;" xml:space="preserve">
<style type="text/css">
	.st0{fill:#29ABE2;}
</style>
<path class="st0" d="M-614.1,609.5l-25.1,25.1l-11.1-11.1c-0.8-0.8-2-0.8-2.8,0c-0.8,0.8-0.8,2,0,2.8l12.5,12.5
	c0.4,0.4,0.9,0.6,1.4,0.6s1-0.2,1.4-0.6l26.5-26.5c0.8-0.8,0.8-2,0-2.8C-612,608.7-613.3,608.7-614.1,609.5z"/>
<path class="st0" d="M-632.2,582.1c-22.8,0-42,19.2-42,42c0,22.8,19.2,42,42,42s42-19.2,42-42S-609.4,582.1-632.2,582.1z
	 M-632.2,662.1c-20.6,0-38-17.4-38-38s17.4-38,38-38s38,17.4,38,38S-611.6,662.1-632.2,662.1z"/>
</svg>
