<?xml version="1.0" encoding="utf-8"?>
<!-- Generator: Adobe Illustrator 19.0.0, SVG Export Plug-In . SVG Version: 6.00 Build 0)  -->
<svg version="1.1" id="Layer_1" xmlns="http://www.w3.org/2000/svg" xmlns:xlink="http://www.w3.org/1999/xlink" x="0px" y="0px"
	 viewBox="-49 211 500 380" style="enable-background:new -49 211 500 380;" xml:space="preserve">
<style type="text/css">
	.st0{fill:#29AAE2;}
	.st1{fill:#2C3E50;}
	.st2{fill:#2C3E50;stroke:#2C3E50;stroke-miterlimit:10;}
</style>
<path class="st0" d="M365.8,355c0.1-1.8,0.1-3.6,0.1-5.4c0-65.6-53.2-118.8-118.8-118.8c-47.5,0-88.5,27.9-107.5,68.2
	c-10.6-7.5-23.6-12-37.7-12c-35.1,0-63.6,27.5-63.6,61.5c0,5,0.6,9.9,1.8,14.6C0,371.6-30,407.7-30,451.2c0,49.8,41.6,87.9,88.2,102
	c70.8,21.4,216.7,26.7,289.4,0c48.8-18,84.4-54.2,84.4-106.3C432.2,401.9,403.8,364.3,365.8,355z"/>
<path class="st1" d="M296.7,464c-19.1,27.7-55.7,45-95.7,45s-76.6-17.2-95.7-45c-3-4.2-0.9-9.6,4.5-11.9c5.4-2.3,12.1-0.7,15.1,3.6
	c15.2,22,44.4,35.8,76.1,35.8s60.9-13.7,76.1-35.8c3-4.3,9.6-5.8,15.1-3.6C297.6,454.3,299.6,459.7,296.7,464z"/>
<g>
	<circle class="st2" cx="159.3" cy="383.5" r="13.6"/>
	<circle class="st2" cx="242.7" cy="383.5" r="13.6"/>
</g>
</svg>
