<?xml version="1.0" encoding="utf-8"?>
<!-- Generator: Adobe Illustrator 19.0.0, SVG Export Plug-In . SVG Version: 6.00 Build 0)  -->
<svg version="1.1" id="Layer_1" xmlns="http://www.w3.org/2000/svg" xmlns:xlink="http://www.w3.org/1999/xlink" x="0px" y="0px"
	 viewBox="-451.2 211 500 380" style="enable-background:new -451.2 211 500 380;" xml:space="preserve">
<style type="text/css">
	.st0{fill:#29AAE2;}
	.st1{fill:#FFFFFF;}
	.st2{fill:#FFFFFF;stroke:#FFFFFF;stroke-miterlimit:10;}
</style>
<g>
	<path class="st0" d="M-36.6,354.8c0.1-1.8,0.1-3.6,0.1-5.4c0-65.6-53.2-118.8-118.8-118.8c-47.5,0-88.5,27.9-107.5,68.2
		c-10.6-7.5-23.6-12-37.7-12c-35.1,0-63.6,27.5-63.6,61.5c0,5,0.6,9.9,1.8,14.6c-40.1,8.5-70.1,44.6-70.1,88.1
		c0,49.8,41.6,87.9,88.2,102c70.8,21.4,216.7,26.7,289.4,0c48.8-18,84.4-54.2,84.4-106.3C29.8,401.7,1.4,364.1-36.6,354.8z"/>
	<path class="st1" d="M-78.2,444.3c-24.5,45.2-71.6,73.3-123,73.3s-98.5-28.1-123-73.3c-3.8-6.9-1.2-15.6,5.8-19.4
		c6.9-3.8,15.6-1.2,19.4,5.8c19.5,35.9,57,58.3,97.8,58.3c40.8,0,78.3-22.3,97.8-58.3c3.8-7,12.4-9.5,19.4-5.8
		C-77.1,428.6-74.5,437.3-78.2,444.3z"/>
	<g>
		<circle class="st2" cx="-254.7" cy="360.8" r="17.5"/>
		<circle class="st2" cx="-147.7" cy="360.8" r="17.5"/>
	</g>
</g>
</svg>
