<?xml version="1.0" encoding="utf-8"?>
<!-- Generator: Adobe Illustrator 19.0.0, SVG Export Plug-In . SVG Version: 6.00 Build 0)  -->
<svg version="1.1" id="Layer_1" xmlns="http://www.w3.org/2000/svg" xmlns:xlink="http://www.w3.org/1999/xlink" x="0px" y="0px"
	 viewBox="-49 211.4 500 380" style="enable-background:new -49 211.4 500 380;" xml:space="preserve">
<style type="text/css">
	.st0{fill:#29AAE2;}
	.st1{fill:#29AAE2;stroke:#2C3E50;stroke-width:7;stroke-miterlimit:10;}
</style>
<g>
	<g>
		<path class="st0" d="M188.2,333c0,42.9-31.6,93.5-70.6,93.5S44.7,375.9,44.7,333s33.8-77.7,72.8-77.7S188.2,290,188.2,333z"/>
		<g>
			<path class="st0" d="M358.4,300.7c0,42.9-31.6,93.5-70.6,93.5S215,343.7,215,300.7s33.8-77.7,72.8-77.7S358.4,257.8,358.4,300.7z
				"/>
			<path class="st0" d="M163.4,486.6c0,0,11.4-81.7,140-73.3c0,0,83.5-5.4,110,78.1c0,0,25.4,64.3-62.1,55.3l-157.8,0.9
				C193.4,547.6,134.5,548.5,163.4,486.6z"/>
		</g>
		<path class="st1" d="M-6.8,518.8c0,0,11.4-81.7,140-73.3c0,0,83.5-5.4,110,78.1c0,0,25.4,64.3-62.1,55.3l-157.8,0.9
			C23.2,579.8-35.7,580.8-6.8,518.8z"/>
	</g>
</g>
</svg>
